<mxfile host="app.diagrams.net" modified="2024-06-19T19:50:20.172Z" agent="Mozilla/5.0 (Windows NT 10.0; Win64; x64) AppleWebKit/537.36 (KHTML, like Gecko) Chrome/126.0.0.0 Safari/537.36" version="24.5.5" etag="l_GW9Xp6AQSS0KxNn56J" type="github">
  <diagram name="Page-1" id="0ww3FNBp9Y-dtG7nT--Q">
    <mxGraphModel>
      <root>
        <mxCell id="0" />
        <mxCell id="1" parent="0" />
      </root>
    </mxGraphModel>
  </diagram>
</mxfile>
